<svg width="22" height="22" viewBox="0 0 22 22" fill="none" xmlns="http://www.w3.org/2000/svg">
<path fill-rule="evenodd" clip-rule="evenodd" d="M11 21.2279C12.5284 21.2279 13.9827 20.9264 15.2995 20.387C15.3313 20.3712 15.3577 20.3606 15.3894 20.35C15.3947 20.35 15.4 20.35 15.4 20.3447C15.5851 20.276 15.7861 20.2389 15.9923 20.2389C16.2197 20.2389 16.4365 20.2812 16.6322 20.3659L21.0745 22L19.9058 17.325C19.9058 17.0447 19.9851 16.7803 20.112 16.5529C20.1543 16.4841 20.1966 16.4154 20.2442 16.3572C21.3495 14.7019 21.9894 12.7346 21.9894 10.6245C22 4.75433 17.0764 0 11 0C4.92356 0 0 4.75433 0 10.6139C0 16.4788 4.92356 21.2279 11 21.2279Z" fill="#FF2D55"/>
<circle cx="6.5" cy="10.5" r="1.5" fill="white"/>
<circle cx="10.5" cy="10.5" r="1.5" fill="white"/>
<circle cx="14.5" cy="10.5" r="1.5" fill="white"/>
</svg>
