<svg width="42" height="42" viewBox="0 0 42 42" fill="none" xmlns="http://www.w3.org/2000/svg">
<circle cx="21" cy="21" r="21" fill="#FF8900"/>
<path d="M12.0904 21C11.9096 21 12.0904 31 12.0904 31C12.0904 31.5979 12.5019 32 12.9045 32H29.1859C29.6288 32 30 31.5729 30 31V21H12.0904Z" fill="white" fill-opacity="0.9"/>
<path d="M29.6711 21H12.3288C12.1472 21 12 21.1791 12 21.4V23H30V21.4C30 21.1791 29.8527 21 29.6711 21Z" fill="#E6DDDC"/>
<path d="M22.6726 19H19.3274C19.1465 19 19 19.0271 19 19.0606V20.9394C19 20.9729 19.1465 21 19.3274 21H22.6726C22.8534 21 23 20.9729 23 20.9394V19.0606C23 19.0271 22.8534 19 22.6726 19Z" fill="#FFDB57"/>
<path d="M22.6726 21H19.3274C19.1465 21 19 21.9894 19 23.2094V32H23V23.2094C23 21.9891 22.8534 21 22.6726 21Z" fill="#ECCB53"/>
<path d="M30.6264 11.9131C30.2742 10.9279 29.7184 9.96581 29.1398 9.33925C28.9274 9.10938 28.6415 8.99285 28.316 9.00034C27.2376 9.02728 25.4802 10.4798 23.0926 13.3174C23.033 13.3882 23 13.4803 23 13.5757V15.6146C23 15.8274 23.1608 16 23.3592 16H28.8846C30.1157 16 30.6238 15.3573 30.8333 14.8181C31.1126 14.0993 31.0391 13.0675 30.6264 11.9131Z" fill="#FFDB57"/>
<path d="M30.8187 12.8158C30.808 12.7674 30.7911 12.7213 30.7686 12.6794C30.1903 11.6013 28.9406 12.0047 27.9941 12.5329C25.2444 14.0675 24.1088 16.1814 24.0618 16.2706C23.9853 16.4159 23.9794 16.601 24.0465 16.7531C24.1134 16.9053 24.2426 17 24.383 17H28.7424C29.5777 17 30.1971 16.6839 30.5836 16.0604C31.0426 15.3198 31.1239 14.1978 30.8187 12.8158Z" fill="#EF9325"/>
<path d="M18.9074 13.3174C16.5199 10.4797 14.7625 9.02728 13.684 9.00034C13.3577 8.99281 13.0725 9.10939 12.8602 9.33925C12.2816 9.96576 11.7258 10.9279 11.3737 11.913C10.9609 13.0675 10.8874 14.0992 11.1666 14.8181C11.3761 15.3573 11.8842 16 13.1154 16H18.6408C18.8392 16 19 15.8274 19 15.6146V13.5757C19 13.4802 18.9671 13.3882 18.9074 13.3174Z" fill="#FFDB57"/>
<path d="M17.9382 16.2706C17.8912 16.1814 16.7557 14.0674 14.0059 12.5329C13.0594 12.0046 11.8097 11.6014 11.2314 12.6793C11.2089 12.7212 11.192 12.7673 11.1813 12.8158C10.876 14.1978 10.9574 15.3198 11.4165 16.0604C11.8029 16.6839 12.4223 17 13.2577 17H17.617C17.7574 17 17.8866 16.9053 17.9536 16.7531C18.0206 16.601 18.0147 16.4159 17.9382 16.2706Z" fill="#EF9325"/>
<path d="M22.5182 14H18.4818C18.2156 14 18 14.1623 18 14.3624V16.6376C18 16.8378 18.2156 17 18.4818 17H22.5182C22.7844 17 23 16.8377 23 16.6376V14.3624C23 14.1622 22.7844 14 22.5182 14Z" fill="#F5BA3D"/>
<path d="M31.1538 15H10.8462C10.3493 15 10 15.4805 10 16V20C10 20.5999 10.3823 21 10.8462 21H31.6526C31.8445 21 32 20.2792 32 20V16C32 15.7208 31.3457 15 31.1538 15Z" fill="white"/>
<rect x="19" y="15" width="4" height="6" fill="#FFDB57"/>
</svg>
